<svg width="1200" height="630" viewBox="0 0 1200 630" fill="none" xmlns="http://www.w3.org/2000/svg">
  <defs>
    <linearGradient id="bg" x1="96" y1="84" x2="1074" y2="546" gradientUnits="userSpaceOnUse">
      <stop stop-color="#FAFAF5" />
      <stop offset="1" stop-color="#F1F3EF" />
    </linearGradient>
    <linearGradient id="hero" x1="136" y1="168" x2="440" y2="472" gradientUnits="userSpaceOnUse">
      <stop stop-color="#43A8A1" />
      <stop offset="1" stop-color="#1E5D68" />
    </linearGradient>
    <linearGradient id="chip" x1="0" y1="0" x2="1" y2="1">
      <stop stop-color="#04152B" />
      <stop offset="1" stop-color="#1A2A40" />
    </linearGradient>
    <radialGradient id="glowA" cx="0" cy="0" r="1" gradientUnits="userSpaceOnUse" gradientTransform="translate(228 84) rotate(51.34) scale(270.094 416.246)">
      <stop stop-color="#DCE8FF" stop-opacity="0.78" />
      <stop offset="1" stop-color="#DCE8FF" stop-opacity="0" />
    </radialGradient>
    <radialGradient id="glowB" cx="0" cy="0" r="1" gradientUnits="userSpaceOnUse" gradientTransform="translate(1040 514) rotate(180) scale(292 212.432)">
      <stop stop-color="#E5EEF9" />
      <stop offset="1" stop-color="#E5EEF9" stop-opacity="0" />
    </radialGradient>
  </defs>

  <rect width="1200" height="630" rx="40" fill="url(#bg)" />
  <rect width="1200" height="630" rx="40" fill="url(#glowA)" />
  <rect width="1200" height="630" rx="40" fill="url(#glowB)" />

  <rect x="72" y="72" width="244" height="42" rx="21" fill="#EAF0FA" />
  <text x="108" y="99" fill="#5F7596" font-family="'Work Sans', 'Segoe UI', sans-serif" font-size="20" font-weight="700" letter-spacing="0.12em">
    OFFLINE / WEB / PWA
  </text>

  <circle cx="248" cy="318" r="132" fill="url(#hero)" />
  <path
    d="M186 364v-42l52-52h-29l19-19h72l-17 73-19 19v-31l-53 52h29l-18 18h-73Z"
    fill="white"
  />

  <text x="430" y="254" font-family="'Work Sans', 'Segoe UI', sans-serif" font-size="86" font-weight="700" letter-spacing="-0.05em">
    <tspan fill="#04152B">Minima</tspan><tspan fill="#2D6170">Unit</tspan>
  </text>
  <text x="438" y="334" fill="#65717D" font-family="'Work Sans', 'Segoe UI', sans-serif" font-size="44" font-weight="500" letter-spacing="-0.01em">
    Smart Converter
  </text>

  <text x="438" y="402" fill="#4A5563" font-family="'Work Sans', 'Yu Gothic', 'Hiragino Sans', sans-serif" font-size="28" font-weight="500">
    年齢・期間、長さ、重さ、面積、体積、温度、速度、通貨を
  </text>
  <text x="438" y="444" fill="#4A5563" font-family="'Work Sans', 'Yu Gothic', 'Hiragino Sans', sans-serif" font-size="28" font-weight="500">
    オフラインでもすばやく確認できるスマート変換ツール
  </text>

  <rect x="72" y="520" width="184" height="46" rx="23" fill="url(#chip)" />
  <rect x="272" y="520" width="164" height="46" rx="23" fill="#EAF0FA" />
  <rect x="452" y="520" width="214" height="46" rx="23" fill="#EAF0FA" />

  <text x="111" y="549" fill="white" font-family="'Work Sans', 'Segoe UI', sans-serif" font-size="22" font-weight="700">
    Offline Ready
  </text>
  <text x="320" y="549" fill="#4D6282" font-family="'Work Sans', 'Segoe UI', sans-serif" font-size="22" font-weight="700">
    Fast UI
  </text>
  <text x="490" y="549" fill="#4D6282" font-family="'Work Sans', 'Segoe UI', sans-serif" font-size="22" font-weight="700">
    Mobile Friendly
  </text>
</svg>
